<?xml version="1.0" encoding="UTF-8" standalone="no"?>
<!DOCTYPE svg PUBLIC "-//W3C//DTD SVG 1.1//EN"
 "http://www.w3.org/Graphics/SVG/1.1/DTD/svg11.dtd">
<!-- Generated by graphviz version 2.40.1 (20161225.0304)
 -->
<!-- Title: G Pages: 1 -->
<svg width="854pt" height="995pt"
 viewBox="0.00 0.00 854.01 995.00" xmlns="http://www.w3.org/2000/svg" xmlns:xlink="http://www.w3.org/1999/xlink">
<g id="graph0" class="graph" transform="scale(1 1) rotate(0) translate(4 991)">
<title>G</title>
<polygon fill="#ffffff" stroke="transparent" points="-4,4 -4,-991 850.0135,-991 850.0135,4 -4,4"/>
<g id="clust1" class="cluster">
<title>cluster_Global</title>
<path fill="none" stroke="#c0c0c0" d="M449.3381,-44C449.3381,-44 826.0135,-44 826.0135,-44 832.0135,-44 838.0135,-50 838.0135,-56 838.0135,-56 838.0135,-967 838.0135,-967 838.0135,-973 832.0135,-979 826.0135,-979 826.0135,-979 449.3381,-979 449.3381,-979 443.3381,-979 437.3381,-973 437.3381,-967 437.3381,-967 437.3381,-56 437.3381,-56 437.3381,-50 443.3381,-44 449.3381,-44"/>
<text text-anchor="middle" x="637.6758" y="-966.2" font-family="Times,serif" font-size="11.00" fill="#c0c0c0">Global</text>
</g>
<g id="clust2" class="cluster">
<title>cluster_\Emsa</title>
<path fill="none" stroke="#c0c0c0" d="M457.3381,-52C457.3381,-52 818.0135,-52 818.0135,-52 824.0135,-52 830.0135,-58 830.0135,-64 830.0135,-64 830.0135,-940 830.0135,-940 830.0135,-946 824.0135,-952 818.0135,-952 818.0135,-952 457.3381,-952 457.3381,-952 451.3381,-952 445.3381,-946 445.3381,-940 445.3381,-940 445.3381,-64 445.3381,-64 445.3381,-58 451.3381,-52 457.3381,-52"/>
<text text-anchor="middle" x="637.6758" y="-939.2" font-family="Times,serif" font-size="11.00" fill="#c0c0c0">Emsa</text>
</g>
<g id="clust3" class="cluster">
<title>cluster_\Emsa\Database</title>
<path fill="none" stroke="#c0c0c0" d="M465.3381,-854C465.3381,-854 810.0135,-854 810.0135,-854 816.0135,-854 822.0135,-860 822.0135,-866 822.0135,-866 822.0135,-913 822.0135,-913 822.0135,-919 816.0135,-925 810.0135,-925 810.0135,-925 465.3381,-925 465.3381,-925 459.3381,-925 453.3381,-919 453.3381,-913 453.3381,-913 453.3381,-866 453.3381,-866 453.3381,-860 459.3381,-854 465.3381,-854"/>
<text text-anchor="middle" x="637.6758" y="-912.2" font-family="Times,serif" font-size="11.00" fill="#c0c0c0">Database</text>
</g>
<g id="clust4" class="cluster">
<title>cluster_\Emsa\Cookie</title>
<path fill="none" stroke="#c0c0c0" d="M742.6039,-775C742.6039,-775 790.2103,-775 790.2103,-775 796.2103,-775 802.2103,-781 802.2103,-787 802.2103,-787 802.2103,-834 802.2103,-834 802.2103,-840 796.2103,-846 790.2103,-846 790.2103,-846 742.6039,-846 742.6039,-846 736.6039,-846 730.6039,-840 730.6039,-834 730.6039,-834 730.6039,-787 730.6039,-787 730.6039,-781 736.6039,-775 742.6039,-775"/>
<text text-anchor="middle" x="766.4071" y="-833.2" font-family="Times,serif" font-size="11.00" fill="#c0c0c0">Cookie</text>
</g>
<g id="clust5" class="cluster">
<title>cluster_\Emsa\Calendar</title>
<path fill="none" stroke="#c0c0c0" d="M736.0028,-534C736.0028,-534 796.8114,-534 796.8114,-534 802.8114,-534 808.8114,-540 808.8114,-546 808.8114,-546 808.8114,-755 808.8114,-755 808.8114,-761 802.8114,-767 796.8114,-767 796.8114,-767 736.0028,-767 736.0028,-767 730.0028,-767 724.0028,-761 724.0028,-755 724.0028,-755 724.0028,-546 724.0028,-546 724.0028,-540 730.0028,-534 736.0028,-534"/>
<text text-anchor="middle" x="766.4071" y="-754.2" font-family="Times,serif" font-size="11.00" fill="#c0c0c0">Calendar</text>
</g>
<g id="clust6" class="cluster">
<title>cluster_\Emsa\Navbar</title>
<path fill="none" stroke="#c0c0c0" d="M742.6039,-455C742.6039,-455 790.2103,-455 790.2103,-455 796.2103,-455 802.2103,-461 802.2103,-467 802.2103,-467 802.2103,-514 802.2103,-514 802.2103,-520 796.2103,-526 790.2103,-526 790.2103,-526 742.6039,-526 742.6039,-526 736.6039,-526 730.6039,-520 730.6039,-514 730.6039,-514 730.6039,-467 730.6039,-467 730.6039,-461 736.6039,-455 742.6039,-455"/>
<text text-anchor="middle" x="766.4071" y="-513.2" font-family="Times,serif" font-size="11.00" fill="#c0c0c0">Navbar</text>
</g>
<g id="clust7" class="cluster">
<title>cluster_\Emsa\Session</title>
<path fill="none" stroke="#c0c0c0" d="M739.3033,-376C739.3033,-376 793.5108,-376 793.5108,-376 799.5108,-376 805.5108,-382 805.5108,-388 805.5108,-388 805.5108,-435 805.5108,-435 805.5108,-441 799.5108,-447 793.5108,-447 793.5108,-447 739.3033,-447 739.3033,-447 733.3033,-447 727.3033,-441 727.3033,-435 727.3033,-435 727.3033,-388 727.3033,-388 727.3033,-382 733.3033,-376 739.3033,-376"/>
<text text-anchor="middle" x="766.4071" y="-434.2" font-family="Times,serif" font-size="11.00" fill="#c0c0c0">Session</text>
</g>
<g id="clust8" class="cluster">
<title>cluster_\Emsa\Webshop</title>
<path fill="none" stroke="#c0c0c0" d="M739.3033,-297C739.3033,-297 793.5108,-297 793.5108,-297 799.5108,-297 805.5108,-303 805.5108,-309 805.5108,-309 805.5108,-356 805.5108,-356 805.5108,-362 799.5108,-368 793.5108,-368 793.5108,-368 739.3033,-368 739.3033,-368 733.3033,-368 727.3033,-362 727.3033,-356 727.3033,-356 727.3033,-309 727.3033,-309 727.3033,-303 733.3033,-297 739.3033,-297"/>
<text text-anchor="middle" x="766.4071" y="-355.2" font-family="Times,serif" font-size="11.00" fill="#c0c0c0">Webshop</text>
</g>
<g id="clust9" class="cluster">
<title>cluster_\Emsa\App</title>
<path fill="none" stroke="#c0c0c0" d="M743.4071,-218C743.4071,-218 789.4071,-218 789.4071,-218 795.4071,-218 801.4071,-224 801.4071,-230 801.4071,-230 801.4071,-277 801.4071,-277 801.4071,-283 795.4071,-289 789.4071,-289 789.4071,-289 743.4071,-289 743.4071,-289 737.4071,-289 731.4071,-283 731.4071,-277 731.4071,-277 731.4071,-230 731.4071,-230 731.4071,-224 737.4071,-218 743.4071,-218"/>
<text text-anchor="middle" x="766.4071" y="-276.2" font-family="Times,serif" font-size="11.00" fill="#c0c0c0">App</text>
</g>
<g id="clust10" class="cluster">
<title>cluster_\Emsa\Content</title>
<path fill="none" stroke="#c0c0c0" d="M739.3033,-139C739.3033,-139 793.5108,-139 793.5108,-139 799.5108,-139 805.5108,-145 805.5108,-151 805.5108,-151 805.5108,-198 805.5108,-198 805.5108,-204 799.5108,-210 793.5108,-210 793.5108,-210 739.3033,-210 739.3033,-210 733.3033,-210 727.3033,-204 727.3033,-198 727.3033,-198 727.3033,-151 727.3033,-151 727.3033,-145 733.3033,-139 739.3033,-139"/>
<text text-anchor="middle" x="766.4071" y="-197.2" font-family="Times,serif" font-size="11.00" fill="#c0c0c0">Content</text>
</g>
<g id="clust11" class="cluster">
<title>cluster_\Emsa\Textfilter</title>
<path fill="none" stroke="#c0c0c0" d="M729.4017,-60C729.4017,-60 803.4125,-60 803.4125,-60 809.4125,-60 815.4125,-66 815.4125,-72 815.4125,-72 815.4125,-119 815.4125,-119 815.4125,-125 809.4125,-131 803.4125,-131 803.4125,-131 729.4017,-131 729.4017,-131 723.4017,-131 717.4017,-125 717.4017,-119 717.4017,-119 717.4017,-72 717.4017,-72 717.4017,-66 723.4017,-60 729.4017,-60"/>
<text text-anchor="middle" x="766.4071" y="-118.2" font-family="Times,serif" font-size="11.00" fill="#c0c0c0">Textfilter</text>
</g>
<!-- \\Emsa\\Database\\UserDatabase -->
<g id="node1" class="node">
<title>\\Emsa\\Database\\UserDatabase</title>
<polygon fill="none" stroke="#000000" points="814.1202,-898 718.694,-898 718.694,-862 814.1202,-862 814.1202,-898"/>
<text text-anchor="middle" x="766.4071" y="-876.7" font-family="Courier,monospace" font-size="11.00" fill="#000000">UserDatabase</text>
</g>
<!-- \\Emsa\\Database\\Database -->
<g id="node2" class="node">
<title>\\Emsa\\Database\\Database</title>
<polygon fill="none" stroke="#000000" points="530.0513,-898 461.4336,-898 461.4336,-862 530.0513,-862 530.0513,-898"/>
<text text-anchor="middle" x="495.7424" y="-876.7" font-family="Courier,monospace" font-size="11.00" fill="#000000">Database</text>
</g>
<!-- \\Emsa\\Database\\UserDatabase&#45;&gt;\\Emsa\\Database\\Database -->
<g id="edge1" class="edge">
<title>\\Emsa\\Database\\UserDatabase&#45;&gt;\\Emsa\\Database\\Database</title>
<path fill="none" stroke="#000000" d="M718.6407,-880C668.201,-880 589.3208,-880 540.1781,-880"/>
<polygon fill="none" stroke="#000000" points="540.164,-876.5001 530.164,-880 540.1639,-883.5001 540.164,-876.5001"/>
</g>
<!-- \\Anax\\Common\\ConfigureInterface -->
<g id="node14" class="node">
<title>\\Anax\\Common\\ConfigureInterface</title>
<ellipse fill="none" stroke="#000000" cx="136.3421" cy="-780" rx="136.1844" ry="18"/>
<text text-anchor="middle" x="136.3421" y="-775.8" font-family="Times,serif" font-size="14.00" fill="#c0c0c0">\Anax\Common\ConfigureInterface</text>
</g>
<!-- \\Emsa\\Database\\Database&#45;&gt;\\Anax\\Common\\ConfigureInterface -->
<g id="edge4" class="edge">
<title>\\Emsa\\Database\\Database&#45;&gt;\\Anax\\Common\\ConfigureInterface</title>
<path fill="none" stroke="#000000" stroke-dasharray="1,5" d="M461.2816,-870.4116C402.4312,-854.037 281.5075,-820.391 204.918,-799.0806"/>
<polygon fill="none" stroke="#000000" points="205.4519,-795.5963 194.8796,-796.2875 203.5754,-802.3401 205.4519,-795.5963"/>
</g>
<!-- \\Emsa\\Cookie\\Cookie -->
<g id="node3" class="node">
<title>\\Emsa\\Cookie\\Cookie</title>
<polygon fill="none" stroke="#000000" points="794.0149,-819 738.7993,-819 738.7993,-783 794.0149,-783 794.0149,-819"/>
<text text-anchor="middle" x="766.4071" y="-797.7" font-family="Courier,monospace" font-size="11.00" fill="#000000">Cookie</text>
</g>
<!-- \\Emsa\\Calendar\\Year -->
<g id="node4" class="node">
<title>\\Emsa\\Calendar\\Year</title>
<polygon fill="none" stroke="#000000" points="793.4071,-740 739.4071,-740 739.4071,-704 793.4071,-704 793.4071,-740"/>
<text text-anchor="middle" x="766.4071" y="-718.7" font-family="Courier,monospace" font-size="11.00" fill="#000000">Year</text>
</g>
<!-- \\Emsa\\Calendar\\Calendar -->
<g id="node5" class="node">
<title>\\Emsa\\Calendar\\Calendar</title>
<polygon fill="none" stroke="#000000" points="800.7159,-686 732.0982,-686 732.0982,-650 800.7159,-650 800.7159,-686"/>
<text text-anchor="middle" x="766.4071" y="-664.7" font-family="Courier,monospace" font-size="11.00" fill="#000000">Calendar</text>
</g>
<!-- \\Emsa\\Calendar\\Day -->
<g id="node6" class="node">
<title>\\Emsa\\Calendar\\Day</title>
<polygon fill="none" stroke="#000000" points="793.4071,-632 739.4071,-632 739.4071,-596 793.4071,-596 793.4071,-632"/>
<text text-anchor="middle" x="766.4071" y="-610.7" font-family="Courier,monospace" font-size="11.00" fill="#000000">Day</text>
</g>
<!-- \\Emsa\\Calendar\\Month -->
<g id="node7" class="node">
<title>\\Emsa\\Calendar\\Month</title>
<polygon fill="none" stroke="#000000" points="793.4071,-578 739.4071,-578 739.4071,-542 793.4071,-542 793.4071,-578"/>
<text text-anchor="middle" x="766.4071" y="-556.7" font-family="Courier,monospace" font-size="11.00" fill="#000000">Month</text>
</g>
<!-- \\Emsa\\Navbar\\Navbar -->
<g id="node8" class="node">
<title>\\Emsa\\Navbar\\Navbar</title>
<polygon fill="none" stroke="#000000" points="794.0149,-499 738.7993,-499 738.7993,-463 794.0149,-463 794.0149,-499"/>
<text text-anchor="middle" x="766.4071" y="-477.7" font-family="Courier,monospace" font-size="11.00" fill="#000000">Navbar</text>
</g>
<!-- \\Emsa\\Navbar\\Navbar&#45;&gt;\\Anax\\Common\\ConfigureInterface -->
<g id="edge2" class="edge">
<title>\\Emsa\\Navbar\\Navbar&#45;&gt;\\Anax\\Common\\ConfigureInterface</title>
<path fill="none" stroke="#000000" stroke-dasharray="1,5" d="M738.521,-494.2335C639.642,-541.1569 305.1527,-699.8902 182.1881,-758.2436"/>
<polygon fill="none" stroke="#000000" points="180.55,-755.1468 173.0162,-762.5962 183.5511,-761.4708 180.55,-755.1468"/>
</g>
<!-- \\Anax\\Common\\AppInjectableInterface -->
<g id="node15" class="node">
<title>\\Anax\\Common\\AppInjectableInterface</title>
<ellipse fill="none" stroke="#000000" cx="495.7424" cy="-18" rx="151.1164" ry="18"/>
<text text-anchor="middle" x="495.7424" y="-13.8" font-family="Times,serif" font-size="14.00" fill="#c0c0c0">\Anax\Common\AppInjectableInterface</text>
</g>
<!-- \\Emsa\\Navbar\\Navbar&#45;&gt;\\Anax\\Common\\AppInjectableInterface -->
<g id="edge3" class="edge">
<title>\\Emsa\\Navbar\\Navbar&#45;&gt;\\Anax\\Common\\AppInjectableInterface</title>
<path fill="none" stroke="#000000" stroke-dasharray="1,5" d="M738.756,-467.6708C731.1975,-463.1226 723.4359,-457.5124 717.4017,-451 598.9596,-323.1715 527.441,-120.0833 504.1554,-46.1177"/>
<polygon fill="none" stroke="#000000" points="507.3744,-44.6809 501.0699,-36.1659 500.6883,-46.7539 507.3744,-44.6809"/>
</g>
<!-- \\Emsa\\Session\\Session -->
<g id="node9" class="node">
<title>\\Emsa\\Session\\Session</title>
<polygon fill="none" stroke="#000000" points="797.6149,-420 735.1992,-420 735.1992,-384 797.6149,-384 797.6149,-420"/>
<text text-anchor="middle" x="766.4071" y="-398.7" font-family="Courier,monospace" font-size="11.00" fill="#000000">Session</text>
</g>
<!-- \\Emsa\\Webshop\\Webshop -->
<g id="node10" class="node">
<title>\\Emsa\\Webshop\\Webshop</title>
<polygon fill="none" stroke="#000000" points="797.6149,-341 735.1992,-341 735.1992,-305 797.6149,-305 797.6149,-341"/>
<text text-anchor="middle" x="766.4071" y="-319.7" font-family="Courier,monospace" font-size="11.00" fill="#000000">Webshop</text>
</g>
<!-- \\Emsa\\App\\App -->
<g id="node11" class="node">
<title>\\Emsa\\App\\App</title>
<polygon fill="none" stroke="#000000" points="793.4071,-262 739.4071,-262 739.4071,-226 793.4071,-226 793.4071,-262"/>
<text text-anchor="middle" x="766.4071" y="-240.7" font-family="Courier,monospace" font-size="11.00" fill="#000000">App</text>
</g>
<!-- \\Emsa\\Content\\Content -->
<g id="node12" class="node">
<title>\\Emsa\\Content\\Content</title>
<polygon fill="none" stroke="#000000" points="797.6149,-183 735.1992,-183 735.1992,-147 797.6149,-147 797.6149,-183"/>
<text text-anchor="middle" x="766.4071" y="-161.7" font-family="Courier,monospace" font-size="11.00" fill="#000000">Content</text>
</g>
<!-- \\Emsa\\Textfilter\\Textfilter -->
<g id="node13" class="node">
<title>\\Emsa\\Textfilter\\Textfilter</title>
<polygon fill="none" stroke="#000000" points="807.4178,-104 725.3963,-104 725.3963,-68 807.4178,-68 807.4178,-104"/>
<text text-anchor="middle" x="766.4071" y="-82.7" font-family="Courier,monospace" font-size="11.00" fill="#000000">Textfilter</text>
</g>
</g>
</svg>
